<svg xmlns="http://www.w3.org/2000/svg" width="433.969" height="104.059" viewBox="0 0 433.969 104.059">
  <g id="Group_36286" data-name="Group 36286" transform="translate(-147.963 -81.736)">
    <path id="Path_27878" data-name="Path 27878" d="M393.4,208.909H369.49a.975.975,0,0,0-.975.975v57.611a.975.975,0,0,0,.975.975H393.4a.975.975,0,0,0,.975-.975V209.884A.975.975,0,0,0,393.4,208.909Z" transform="translate(-144.712 -83.443)" fill="#182034"/>
    <path id="Path_27879" data-name="Path 27879" d="M294.85,333.4c9.111-.015,15.977-9.57,11.162-19.2a10.663,10.663,0,0,0-4.784-4.77c-9.638-4.785-19.169,2.1-19.166,11.207A12.777,12.777,0,0,0,294.85,333.4Z" transform="translate(-87.987 -148.37)" fill="#2155ff"/>
    <path id="Path_27881" data-name="Path 27881" d="M505.224,109.576H481.552a.975.975,0,0,0-.975.975v91.731a.975.975,0,0,0,.975.975h23.672a.975.975,0,0,0,.975-.975V110.551A.975.975,0,0,0,505.224,109.576Z" transform="translate(-218.24 -18.267)" fill="#182034"/>
    <path id="Path_27886" data-name="Path 27886" d="M248.548,111.247l-69.716,91.732a.975.975,0,0,1-.776.385H148.939a.975.975,0,0,1-.776-1.565l69.716-91.731a.975.975,0,0,1,.776-.385h29.117A.975.975,0,0,1,248.548,111.247Z" transform="translate(0 -18.336)" fill="#182034"/>
    <g id="Group_36285" data-name="Group 36285" transform="translate(309.454 81.736)">
      <path id="Path_27887" data-name="Path 27887" d="M617.6,201.541V110.223a.975.975,0,0,1,.975-.975h12.44a.975.975,0,0,1,.974.975v91.318a.975.975,0,0,1-.974.975h-12.44A.975.975,0,0,1,617.6,201.541Zm6.262-39.572V150.061a.975.975,0,0,1,.975-.975h59.074a.975.975,0,0,1,.975.975v11.907a.975.975,0,0,1-.975.975H624.834A.975.975,0,0,1,623.859,161.968Zm54.628,39.572V110.223a.975.975,0,0,1,.974-.975H691.9a.975.975,0,0,1,.975.975v91.318a.975.975,0,0,1-.975.975h-12.44A.975.975,0,0,1,678.488,201.541Z" transform="translate(-617.597 -99.788)" fill="#1f2d49"/>
      <path id="Path_27888" data-name="Path 27888" d="M910.8,99.057a9.508,9.508,0,0,1-6.8-2.265,9.451,9.451,0,0,1,.067-12.658,9.236,9.236,0,0,1,6.729-2.4A9.516,9.516,0,0,1,917.6,84a9.45,9.45,0,0,1-.067,12.658A9.239,9.239,0,0,1,910.8,99.057Zm-6.662,84.432v-68a.975.975,0,0,1,.975-.975h11.774a.975.975,0,0,1,.975.975v68a.975.975,0,0,1-.975.975H905.117A.975.975,0,0,1,904.143,183.489Z" transform="translate(-803.949 -81.736)" fill="#1f2d49"/>
      <path id="Path_27889" data-name="Path 27889" d="M1020.866,246.528l-28.917-68.384a.783.783,0,0,1,.721-1.088h13.082a.783.783,0,0,1,.725.488l20.841,51.189a.784.784,0,0,1-.39,1h0a.783.783,0,0,1-1.056-1.014l21.775-51.19a.783.783,0,0,1,.72-.476h12.4a.783.783,0,0,1,.716,1.1l-30.35,68.385a.783.783,0,0,1-.716.465h-8.831A.782.782,0,0,1,1020.866,246.528Z" transform="translate(-863.182 -144.279)" fill="#1f2d49"/>
      <path id="Path_27890" data-name="Path 27890" d="M1250.824,245.288a38.907,38.907,0,0,1-19.12-4.6,33.884,33.884,0,0,1-13.057-12.591,35.41,35.41,0,0,1-4.73-18.387,40.894,40.894,0,0,1,2.665-15.056,36.113,36.113,0,0,1,7.395-11.791,32.524,32.524,0,0,1,11.325-7.728,37.094,37.094,0,0,1,14.324-2.731,30.89,30.89,0,0,1,12.657,2.6,31.767,31.767,0,0,1,10.193,7.128,31.3,31.3,0,0,1,6.662,10.725,36.262,36.262,0,0,1,2.2,13.524l-.12,5.255a.621.621,0,0,1-.621.607h-56.081a.621.621,0,0,1-.6-.454l-2.716-9.683a.621.621,0,0,1,.6-.789h46.169a.622.622,0,0,1,.466,1.033h0a.621.621,0,0,1-1.087-.411v-1.52c0-.022,0-.045,0-.068a15.45,15.45,0,0,0-2.928-7.827,18.175,18.175,0,0,0-14.789-7.462,24.732,24.732,0,0,0-12.125,2.731,17.61,17.61,0,0,0-7.462,7.995,29.841,29.841,0,0,0-2.531,12.991,25.327,25.327,0,0,0,3.064,12.724,20.865,20.865,0,0,0,8.661,8.327,27.441,27.441,0,0,0,12.924,2.931,26.463,26.463,0,0,0,9.66-1.732,32.987,32.987,0,0,0,9.143-5.817.623.623,0,0,1,.912.109l6.224,8.738a.621.621,0,0,1-.071.807,31.933,31.933,0,0,1-7.414,5.223,48.671,48.671,0,0,1-9.727,3.8A38.147,38.147,0,0,1,1250.824,245.288Z" transform="translate(-1008.863 -141.228)" fill="#1f2d49"/>
    </g>
  </g>
</svg>
